<svg width="91" height="109" viewBox="0 0 91 109" fill="none" xmlns="http://www.w3.org/2000/svg">
<path d="M81.2833 6.92755H71.6325C71.3095 3.19684 68.1819 0 64.0586 0C59.1916 0 28.1661 0 26.4157 0C22.3035 0 19.1681 3.1846 18.8439 6.92755H8.7749C3.93647 6.92755 0 10.6714 0 15.2734V100.654C0 105.256 3.93647 109 8.7749 109H81.2833C86.1217 109 90.0582 105.256 90.0582 100.654V15.2734C90.0582 10.6714 86.1217 6.92755 81.2833 6.92755ZM66.8892 8.5202L58.9637 32.7994L48.9138 23.4747L64.5826 4.6634C66.2895 4.96105 67.4716 6.73612 66.8892 8.5202ZM56.4009 92.024L45.0291 103.012L34.9969 93.3183L54.2952 79.8094L56.4009 92.024ZM42.3558 41.5653H47.7022L49.0208 49.2143L40.0004 55.2279L42.3558 41.5653ZM38.9195 61.4994L49.8791 54.1926L51.0535 61.005L37.2155 71.3834L38.9195 61.4994ZM36.0725 78.0137L51.9347 66.1168L53.4281 74.779L34.3246 88.1513L36.0725 78.0137ZM48.4929 36.947H41.5653V30.2231L45.6662 26.7616L48.5661 29.452C48.4331 29.9767 48.5197 29.6827 48.4929 36.947ZM45.6967 20.1211L32.1503 4.61837H58.6092L45.6967 20.1211ZM24.0176 5.83092C24.509 5.16311 25.2308 4.74214 26.0374 4.64169L42.4539 23.4292L31.1892 32.9375L23.5941 8.55022V8.54999C23.592 8.51928 23.0436 7.15478 24.0176 5.83092ZM4.61837 100.654V15.2734C4.61837 13.2182 6.48304 11.5459 8.7749 11.5459H19.69L27.8146 37.6337C28.3051 39.2079 30.2487 39.7759 31.5088 38.7116L36.947 34.1214V39.2561C36.947 39.9623 37.2647 40.5932 37.7639 41.0169L28.8983 92.4431C28.7683 93.1964 29.0195 93.9651 29.5693 94.4962L39.8004 104.382H8.7749C6.48304 104.382 4.61837 102.71 4.61837 100.654ZM85.4398 100.654C85.4398 102.709 83.5752 104.382 81.2833 104.382H50.2578L60.4889 94.4962C61.0387 93.9651 61.2899 93.1964 61.1599 92.4431L52.2943 41.0167C52.7935 40.5932 53.1113 39.9623 53.1113 39.2561V33.6693L58.4681 38.6396C59.6765 39.7621 61.7037 39.2887 62.2339 37.6633L70.7597 11.5457H81.2833C83.5752 11.5457 85.4398 13.2178 85.4398 15.2732V100.654Z" fill="#212F38"/>
</svg>
