<svg width="88" height="99" viewBox="0 0 88 99" fill="none" xmlns="http://www.w3.org/2000/svg">
<path d="M78.5377 81.1241L78.0714 82.5261C76.5959 86.9715 73.0338 89.4194 68.044 89.4194C65.343 89.4194 62.7312 88.4421 60.6875 86.6665L49.8787 77.2695C47.773 75.438 45.4476 73.8827 42.9726 72.6021V62.1145C46.5999 61.372 49.3391 58.1481 49.3391 54.2919C49.3391 51.9016 48.2743 49.7267 46.5474 48.2433L62.3985 42.1852C70.7737 38.9836 76.3985 30.7938 76.3985 21.8055C76.3985 9.78184 66.6482 0 54.6632 0H21.7354C9.75035 0 -1.52588e-05 9.78184 -1.52588e-05 21.8055C-1.52588e-05 30.7938 5.62483 38.982 13.9984 42.1836L29.8495 48.2417C28.1226 49.7251 27.0578 51.9 27.0578 54.2903C27.0578 58.1449 29.797 61.3704 33.4244 62.1129V69.2824C31.2693 68.8721 29.076 68.6613 26.8811 68.6613C23.136 68.6613 19.3861 69.5491 16.0357 71.2289C11.0523 73.7295 7.95817 78.7545 7.95817 84.3416C7.95817 92.4245 14.5125 99 22.5694 99C32.116 99 40.1283 92.3798 42.3455 83.4809C42.7816 83.8131 43.2129 84.15 43.6252 84.5077L54.4356 93.9063C58.2125 97.1909 63.0463 99 68.044 99C77.0384 99 84.6591 93.5566 87.4572 85.1336L88 83.4985L78.5377 81.1241ZM74.818 91.0497L79.1648 91.9215C77.7403 93.1031 76.1105 94.0181 74.3358 94.6727L71.8353 92.1642C72.9033 91.9071 73.8933 91.5255 74.818 91.0497ZM60.6827 90.5834L61.4658 94.5099C59.9538 93.8983 58.5292 93.0728 57.2289 92.0556L56.4187 87.1791L58.6056 89.0792C59.255 89.6461 59.9506 90.1475 60.6827 90.5834ZM52.6465 83.8993L53.4678 88.8381L49.2007 85.1288L48.5131 80.305L52.6465 83.8993ZM39.7909 78.5294C39.7909 80.3098 39.5203 82.0279 39.019 83.6454L35.1417 84.7568C35.7513 83.5225 36.1842 82.1892 36.4103 80.784L39.7909 78.2419V78.5294ZM22.5694 89.4194C19.7793 89.4194 17.508 87.1408 17.508 84.3416C17.508 82.4063 18.5807 80.6658 20.3061 79.7988C22.337 78.78 24.6099 78.2419 26.8811 78.2419C29.0903 78.2419 31.2804 78.5278 33.4116 79.093C33.1172 84.8366 28.3661 89.4194 22.5694 89.4194ZM30.2411 54.2903C30.2411 52.5498 31.1738 50.9962 32.6301 50.1531C33.1347 50.8876 33.4244 51.769 33.4244 52.6936C33.4244 52.7335 33.4307 53.0544 33.5772 53.476L30.7202 56.3422C30.4209 55.7178 30.2411 55.028 30.2411 54.2903ZM14.8595 35.5841C15.3163 35.814 15.7811 36.0296 16.2633 36.2148L19.8254 37.5753L21.1258 41.4906L15.3879 39.2982L14.8595 35.5841ZM6.46521 20.1066L3.2135 21.194C3.27239 19.3753 3.58594 17.6204 4.13187 15.9677H7.51888C6.98568 17.2691 6.62438 18.6567 6.46521 20.1066ZM6.4684 23.4726C6.60687 24.7292 6.89814 25.9508 7.32788 27.1164L4.89745 29.5547C4.1653 27.9627 3.64642 26.2653 3.3854 24.5041L6.4684 23.4726ZM9.5498 21.8055C9.5498 15.0656 15.0171 9.58065 21.7354 9.58065H54.6632C61.3815 9.58065 66.8487 15.0656 66.8487 21.8055C66.8487 26.845 63.6957 31.4357 59.0004 33.2289L42.4473 39.5553C40.8955 40.1493 39.4503 41.0291 38.1993 42.1357C36.9673 41.0435 35.5349 40.1605 33.9496 39.5553L17.3982 33.2289C12.7028 31.4373 9.5498 26.845 9.5498 21.8055ZM15.5359 7.70923L11.7065 6.17153C13.2774 5.15279 15.0123 4.37356 16.8602 3.86739L18.3149 6.78629C17.3504 7.00665 16.4209 7.31482 15.5359 7.70923ZM45.5494 6.3871L43.9578 3.19355H48.8982L50.1716 6.3871H45.5494ZM41.9905 6.3871H37.5913L35.9996 3.19355H40.3989L41.9905 6.3871ZM34.0324 6.3871H29.6331L28.0414 3.19355H32.4407L34.0324 6.3871ZM63.8039 9.44013C62.7837 8.67847 61.6743 8.03337 60.4822 7.54316V4.14523C62.276 4.74082 63.9424 5.60787 65.4481 6.69048L63.8039 9.44013ZM69.6834 25.0055L73.0004 24.5903C72.7282 26.3659 72.195 28.0745 71.4454 29.6745L68.0472 29.3343C68.8017 27.9899 69.3571 26.532 69.6834 25.0055ZM70.0288 21.7433C70.0225 20.196 69.7885 18.7014 69.3571 17.2931L72.2253 15.8544C72.811 17.5869 73.1452 19.4311 73.1914 21.3473L70.0288 21.7433ZM46.1574 54.2903C46.1574 55.028 45.9776 55.7178 45.6784 56.3422L42.8214 53.476C42.9678 53.0544 42.9742 52.7335 42.9742 52.6936C42.9742 51.769 43.2639 50.886 43.7684 50.1531C45.2248 50.9962 46.1574 52.5498 46.1574 54.2903ZM36.6029 52.4093C36.5296 50.4597 35.7004 48.6393 34.3698 47.2917L32.7877 42.5285L32.8179 42.5397C36.9037 44.1013 39.6588 48.0517 39.7718 52.4205C39.6063 52.5179 39.1781 52.6936 38.1993 52.6936C37.1806 52.6936 36.7493 52.5003 36.6029 52.4093ZM41.9237 47.3907C41.5051 46.3703 40.9719 45.4011 40.3321 44.5069C40.9066 44.0023 41.5433 43.5855 42.2054 43.2135L48.8282 43.9512L44.7138 45.524C43.6395 45.936 42.6925 46.5827 41.9237 47.3907ZM48.4144 40.6938L54.4706 38.3785L61.2032 39.2232L55.338 41.465L48.4144 40.6938ZM23.6708 39.0443L28.9439 41.0595L30.2443 44.9747L24.9728 42.9596L23.6708 39.0443ZM35.971 55.5901C36.5647 55.7737 37.2952 55.8871 38.1993 55.8871C39.1033 55.8871 39.8339 55.7737 40.4276 55.5901L43.4278 58.6C42.8055 58.9002 42.1179 59.0806 41.3825 59.0806H35.016C34.2807 59.0806 33.5931 58.9002 32.9707 58.6L35.971 55.5901ZM39.7909 74.25L36.6076 76.6452V71.0564L39.7909 68.6613V74.25ZM39.7909 62.2742V64.6694L36.6076 67.0645V62.2742H39.7909ZM65.8953 36.5949L60.7528 35.9498C62.7184 35.0955 64.4565 33.8548 65.8762 32.3267L69.6611 32.7067C68.6043 34.171 67.339 35.4835 65.8953 36.5949ZM70.9583 12.9195L68.1061 14.3502C67.5681 13.3778 66.9219 12.4772 66.1962 11.6485L67.904 8.79344C69.0993 10.0166 70.1339 11.4026 70.9583 12.9195ZM57.2989 3.40432V6.6314C56.441 6.48131 55.5624 6.3871 54.6632 6.3871H53.6015L52.3282 3.19355H54.6632C55.5592 3.19355 56.4346 3.27977 57.2989 3.40432ZM24.4825 3.19355L26.0742 6.3871H21.7354C21.7147 6.3871 21.6956 6.39029 21.6765 6.39029L20.1246 3.27498C20.6562 3.22868 21.191 3.19355 21.7354 3.19355H24.4825ZM8.83516 8.45811L12.1362 9.78344C11.0635 10.6473 10.1148 11.6565 9.30628 12.7742H5.52774C6.41587 11.1742 7.53479 9.72435 8.83516 8.45811ZM6.53206 32.4305L8.82879 30.1263C9.52434 31.2106 10.3472 32.2133 11.2911 33.0963L11.9309 37.5849C9.79014 36.2372 7.95658 34.4791 6.53206 32.4305ZM33.4244 72.5494V75.8053C32.0858 75.4907 30.7249 75.2863 29.3545 75.1665L25.3404 71.9443C25.8545 71.9075 26.367 71.8548 26.8811 71.8548C29.0792 71.8548 31.2725 72.0975 33.4244 72.5494ZM17.4586 74.0855C18.6412 73.4915 19.8923 73.0444 21.1672 72.6836L24.3632 75.2496C22.8352 75.4683 21.3438 75.8931 19.9225 76.4951L15.0935 75.6871C15.8065 75.0707 16.5896 74.523 17.4586 74.0855ZM12.7235 78.5278L16.1806 79.1058C15.4755 79.9697 14.9486 80.9692 14.6414 82.0518L11.2003 85.5041C11.1621 85.1224 11.1414 84.7344 11.1414 84.3416C11.1414 82.2435 11.7112 80.2539 12.7235 78.5278ZM12.1633 89.0553L14.6606 86.5499C14.9646 87.6421 15.4818 88.6337 16.1726 89.4944L16.9748 94.3278C14.8627 93.1319 13.1708 91.2828 12.1633 89.0553ZM20.4127 95.5957L19.8334 92.1099C20.6944 92.4149 21.6065 92.6129 22.5694 92.6129C22.8798 92.6129 23.1838 92.5858 23.4878 92.5666L29.5567 94.3055C27.4191 95.2635 25.0587 95.8064 22.5694 95.8064C21.8325 95.8064 21.1115 95.7298 20.4127 95.5957ZM33.2636 92.0476L29.2686 90.9028C30.2299 90.3758 31.1133 89.7291 31.9234 89.001L37.2793 87.4649C36.2177 89.2214 34.86 90.7734 33.2636 92.0476ZM42.901 79.968C42.9344 79.4906 42.9742 79.0148 42.9742 78.5294V76.2348C43.6283 76.618 44.2666 77.0268 44.8921 77.4547L45.5335 81.9528C44.6979 81.2391 43.813 80.5828 42.901 79.968ZM64.9133 95.5238L64.2305 92.0956C65.3765 92.4117 66.5654 92.5762 67.7687 92.5985L70.7657 95.6053C69.8824 95.7346 68.9752 95.8064 68.044 95.8064C66.9888 95.8064 65.9415 95.7106 64.9133 95.5238ZM81.7544 89.1846L78.2226 88.4757C79.1584 87.4569 79.9543 86.2801 80.5575 84.9228L83.8172 85.7404C83.2617 87.0018 82.5486 88.134 81.7544 89.1846Z" fill="#212F38"/>
</svg>
