<svg width="91" height="32" viewBox="0 0 91 32" fill="none" xmlns="http://www.w3.org/2000/svg">
<path d="M89.0935 1.99285C86.3381 1.37426 78.303 -0.251775 71.1077 0.0331984C62.2556 0.383723 54.324 2.04895 50.5115 3.10064C48.4519 3.84564 45.2236 3.71417 45.2236 3.71417H44.8586C44.8586 3.71417 41.6304 3.84564 39.5705 3.10064C35.7583 2.04895 27.8264 0.383723 18.9746 0.0331984C11.779 -0.251775 3.74388 1.37426 0.988754 1.99285C0.407944 2.12323 -1.52588e-05 2.63684 -1.52588e-05 3.23217V7.32354C-1.52588e-05 7.8432 0.316391 8.31048 0.798813 8.50347L0.92894 8.55554C1.29881 8.70343 1.55687 9.03601 1.60155 9.4317C1.93529 12.3829 3.53856 24.7667 7.2744 28.0789C11.5251 31.8475 17.5232 31.799 21.0342 31.8475C24.5442 31.8959 34.2639 33.7302 41.3865 13.3628C41.5161 12.992 41.6194 12.6058 41.7214 12.2265C41.9289 11.4541 42.5615 9.893 44.3035 9.76153H45.7788C47.5207 9.893 48.1535 11.4541 48.3608 12.2265C48.4629 12.6058 48.5661 12.992 48.6958 13.3628C55.8186 33.7302 65.5378 31.8959 69.0481 31.8475C72.5591 31.799 78.5574 31.8475 82.8078 28.0789C86.5437 24.7667 88.1472 12.3829 88.4807 9.4317C88.5254 9.03601 88.7834 8.70343 89.1533 8.55554L89.2834 8.50347C89.7659 8.31048 90.0823 7.8432 90.0823 7.32354V3.23217C90.0823 2.63684 89.6743 2.12323 89.0935 1.99285ZM7.40013 22.1074C6.90892 20.6413 6.36034 18.8205 5.93748 16.924L15.9673 3.10833C17.1208 3.00073 18.1999 2.9638 19.1028 2.9638C20.6553 2.9638 21.6946 3.06536 21.7265 3.06884L21.741 3.06982C22.2839 3.11016 22.8039 3.15661 23.3103 3.20611L8.2534 23.9465C7.90648 23.3749 7.61888 22.7595 7.40013 22.1074ZM17.1304 28.6634C15.3786 28.4214 13.8284 28.0569 12.7012 27.6368C12.1199 27.42 11.5827 27.1266 11.0693 26.7995L27.7663 3.79998C29.4953 4.09161 30.9463 4.40551 32.1599 4.67132L32.9516 4.84344C33.3655 4.93237 33.748 5.08697 34.1142 5.26861L17.1304 28.6634ZM54.4368 17.2176L64.4162 3.47131C65.5898 3.31427 66.8616 3.1734 68.2729 3.06848L68.2873 3.0675C68.3193 3.06402 69.3581 2.96246 70.9111 2.96246C71.3039 2.96246 71.7319 2.96972 72.1826 2.9859L57.0469 23.835C55.999 21.9725 55.1184 19.663 54.4368 17.2176ZM65.7073 28.8498C63.831 28.6742 62.0251 28.3004 60.5 27.6561C60.1897 27.4979 59.8877 27.2961 59.593 27.0593L76.7031 3.49078C78.7659 3.89508 80.8249 4.60589 82.446 5.79284L65.7073 28.8498Z" fill="#212F38"/>
</svg>
